<?xml version="1.0" encoding="utf-8"?>
<!-- Generator: Adobe Illustrator 23.0.5, SVG Export Plug-In . SVG Version: 6.00 Build 0)  -->
<svg version="1.1" id="Layer_1" xmlns="http://www.w3.org/2000/svg" xmlns:xlink="http://www.w3.org/1999/xlink" x="0px" y="0px"
	 viewBox="0 0 560 560" style="enable-background:new 0 0 560 560;" xml:space="preserve">
<style type="text/css">
	.st0{fill:#3BD9C0;stroke:#00384A;stroke-width:16;stroke-linecap:round;stroke-linejoin:round;stroke-miterlimit:10;}
	.st1{fill:#E7EEE7;stroke:#00384A;stroke-width:16;stroke-linecap:round;stroke-linejoin:round;stroke-miterlimit:10;}
	.st2{fill:#1A475A;}
	.st3{fill:#1A475A;stroke:#1A475A;stroke-width:25;stroke-miterlimit:10;}
	.st4{fill:none;stroke:#99CDDF;stroke-width:24;stroke-linecap:round;stroke-linejoin:round;stroke-miterlimit:10;}
	.st5{fill:#FFFFFF;stroke:#00384A;stroke-width:25;stroke-miterlimit:10;}
	.st6{fill:#FFCF31;stroke:#FFCF31;stroke-width:16;stroke-miterlimit:10;}
	.st7{fill:#E7EEE7;stroke:#00384A;stroke-width:16;stroke-linejoin:round;stroke-miterlimit:10;}
	.st8{fill:none;stroke:#00384A;stroke-width:15;stroke-linecap:round;stroke-linejoin:round;stroke-miterlimit:10;}
	.st9{fill:none;stroke:#00384A;stroke-width:25;stroke-linecap:round;stroke-linejoin:round;stroke-miterlimit:10;}
	.st10{fill:none;stroke:#00384A;stroke-width:16;stroke-linecap:round;stroke-linejoin:round;stroke-miterlimit:10;}
	.st11{fill:#4AFFE8;stroke:#00384A;stroke-width:16;stroke-miterlimit:10;}
	.st12{fill:#00384A;stroke:#00384A;stroke-width:25;stroke-linecap:round;stroke-linejoin:round;stroke-miterlimit:10;}
	.st13{fill:#FFCF31;stroke:#00384A;stroke-width:16;stroke-miterlimit:10;}
	.st14{fill:none;stroke:#00384A;stroke-width:25;stroke-linecap:round;stroke-miterlimit:10;}
	.st15{fill:none;stroke:#7B7B72;stroke-width:16;stroke-linecap:round;stroke-linejoin:round;stroke-miterlimit:10;}
	.st16{fill:#4AFFE8;stroke:#3BD9C0;stroke-width:20;stroke-linecap:round;stroke-linejoin:round;stroke-miterlimit:10;}
</style>
<circle class="st0" cx="280" cy="280" r="252"/>
<polyline class="st1" points="203.6,442.9 227.5,159.9 327.6,159.9 366,442.9 "/>
<path class="st2" d="M72.5,427.8c138-44.8,275.1,76.2,374.7-18c0,0,15.3,52.6-64.6,105.3"/>
<path class="st3" d="M72.5,423c0,0,106,158.9,310,87.3"/>
<path class="st4" d="M90.3,444.6C206.8,405,366,528.8,444.1,414.4"/>
<path class="st5" d="M303.9,462.4"/>
<path class="st6" d="M448.3,91l-120.7,23.7v37.5l190.8,46C518.4,198.2,504.6,140.7,448.3,91z"/>
<path class="st6" d="M227.5,114.7v45.2L41.6,198.2c0,0,23.6-73.9,71.8-107.3L227.5,114.7z"/>
<polyline class="st7" points="127.7,408 101.7,368.9 139.2,368.9 227.5,368.9 227.5,420 "/>
<path class="st8" d="M77.1,419.9c138-44.8,279.8,101.3,380.2-28.4c0,0-4.4,113.5-144.5,135.2"/>
<circle class="st9" cx="280" cy="280" r="252"/>
<polyline class="st10" points="133.5,365.9 133.9,333.7 176.7,333.7 "/>
<rect x="194.6" y="159.9" class="st7" width="170.8" height="37.5"/>
<polyline class="st11" points="253.2,197.5 253.2,197.5 253.2,159.9 "/>
<polyline class="st11" points="311.8,179.5 311.8,198.2 311.8,160.7 "/>
<polygon class="st12" points="280,64.1 213.5,91 343.7,91 "/>
<rect x="227.5" y="91" class="st13" width="100.2" height="68.9"/>
<line class="st14" x1="280" y1="264.8" x2="280" y2="249.5"/>
<line class="st14" x1="280" y1="327.5" x2="280" y2="312.2"/>
<path class="st15" d="M334.5,210.9"/>
<path class="st15" d="M221.5,230.9"/>
<line class="st16" x1="155.1" y1="312.2" x2="191" y2="349.8"/>
</svg>
